Coordinates
version=1
nRows=16
nColumns=40
inDegrees=yes

Units are S.I. units (second, meters, Newtons, ...)
If the header above contains a line with 'inDegrees', this indicates whether rotational values are in degrees (yes) or radians (no).

endheader
time	pelvis_tilt	pelvis_list	pelvis_rotation	pelvis_tx	pelvis_ty	pelvis_tz	hip_flexion_r	hip_adduction_r	hip_rotation_r	knee_angle_r	knee_angle_r_beta	ankle_angle_r	subtalar_angle_r	mtp_angle_r	hip_flexion_l	hip_adduction_l	hip_rotation_l	knee_angle_l	knee_angle_l_beta	ankle_angle_l	subtalar_angle_l	mtp_angle_l	lumbar_extension	lumbar_bending	lumbar_rotation	arm_flex_r	arm_add_r	arm_rot_r	elbow_flex_r	pro_sup_r	wrist_flex_r	wrist_dev_r	arm_flex_l	arm_add_l	arm_rot_l	elbow_flex_l	pro_sup_l	wrist_flex_l	wrist_dev_l
      0.60000000	     -1.03423225	    -12.21613812	     83.32248239	      0.19655868	      0.91922780	      0.82695937	    -11.05108936	      2.88204309	      3.52552821	      2.39634524	      0.04182411	      6.18919922	      0.00000000	      0.00000000	     40.55419486	     -2.85515368	     -7.07103032	      5.21232924	      0.09097231	      7.27944305	     -0.00000000	      0.00000000	      1.75649953	     -2.38157123	      9.98744814	      0.00000000	     -0.00000000	     -0.00000000	      0.00000000	      0.00000000	      0.00000000	      0.00000000	      0.00000000	      0.00000000	     -0.00000000	      0.00000000	      0.00000000	     -0.00000000	      0.00000000
      0.61000000	     -1.23751034	    -12.29568731	     82.68444908	      0.19692125	      0.91437836	      0.80433578	    -12.02127122	      2.35899170	      3.51251671	      3.10688447	      0.05422536	      6.06767895	      0.00000000	      0.00000000	     40.85915024	     -2.91975798	     -6.80788238	      4.60137132	      0.08030908	      7.63860865	      0.00000000	      0.00000000	      2.01174256	     -2.56597066	     10.57810596	      0.00000000	      0.00000000	      0.00000000	      0.00000000	      0.00000000	      0.00000000	      0.00000000	      0.00000000	      0.00000000	      0.00000000	      0.00000000	      0.00000000	      0.00000000	      0.00000000
      0.62000000	     -1.54732586	    -12.30092002	     82.11642562	      0.19716297	      0.91005661	      0.78151464	    -12.76110339	      1.69683887	      3.25125200	      4.33683667	      0.07569208	      5.62149017	      0.00000000	      0.00000000	     41.19811378	     -2.87574790	     -6.81309927	      4.97899233	      0.08689981	      7.51621679	      0.00000000	      0.00000000	      2.19921370	     -2.92567082	     11.14778542	      0.00000000	      0.00000000	      0.00000000	      0.00000000	      0.00000000	      0.00000000	      0.00000000	      0.00000000	      0.00000000	      0.00000000	      0.00000000	      0.00000000	      0.00000000	      0.00000000
      0.63000000	     -1.93379571	    -12.37967097	     81.63740979	      0.19724485	      0.90615432	      0.75853987	    -13.12174193	      0.94798271	      2.80396713	      6.01442372	      0.10497150	      4.76920792	     -0.00000000	      0.00000000	     41.76101684	     -2.76246618	     -7.21087489	      6.32468178	      0.11038652	      6.83723247	     -0.00000000	      0.00000000	      2.49136192	     -3.36315717	     11.58715979	      0.00000000	      0.00000000	      0.00000000	      0.00000000	      0.00000000	      0.00000000	      0.00000000	      0.00000000	      0.00000000	      0.00000000	      0.00000000	      0.00000000	     -0.00000000	     -0.00000000
      0.64000000	     -2.39439677	    -12.46299558	     81.28460293	      0.19711971	      0.90282807	      0.73538486	    -13.18337559	      0.11698724	      2.22844252	      8.12387997	      0.14178845	      3.48154519	      0.00000000	     -0.00000000	     42.43648931	     -2.55291893	     -7.81202904	      8.42009458	      0.14695837	      5.45973637	      0.00000000	      0.00000000	      2.81901266	     -3.89323251	     11.87813602	      0.00000000	      0.00000000	      0.00000000	      0.00000000	      0.00000000	     -0.00000000	      0.00000000	     -0.00000000	      0.00000000	      0.00000000	      0.00000000	      0.00000000	     -0.00000000	     -0.00000000
      0.65000000	     -2.90401904	    -12.57290034	     81.06281643	      0.19675315	      0.90010042	      0.71215093	    -12.86705192	     -0.76773579	      1.53479139	     10.73578815	      0.18737485	      1.74627008	     -0.00000000	     -0.00000000	     43.22096991	     -2.26201171	     -8.41371071	     11.08296016	      0.19343415	      3.41827597	     -0.00000000	     -0.00000000	      3.18848685	     -4.47810286	     12.03966676	      0.00000000	     -0.00000000	     -0.00000000	      0.00000000	      0.00000000	     -0.00000000	      0.00000000	     -0.00000000	     -0.00000000	     -0.00000000	      0.00000000	      0.00000000	      0.00000000	     -0.00000000
      0.66000000	     -3.46664877	    -12.48987619	     80.95778158	      0.19629985	      0.89839277	      0.68871288	    -12.45375436	     -1.73048991	      0.86827929	     13.72685709	      0.23957885	     -0.64212370	      0.00000000	      0.00000000	     43.72236073	     -1.84777265	     -8.84912548	     13.90821504	      0.24274415	      0.92930154	      0.00000000	      0.00000000	      3.36497965	     -5.18866152	     12.02444547	      0.00000000	      0.00000000	      0.00000000	      0.00000000	      0.00000000	      0.00000000	      0.00000000	      0.00000000	      0.00000000	      0.00000000	      0.00000000	      0.00000000	      0.00000000	      0.00000000
      0.67000000	     -4.12240653	    -12.62133580	     80.98319859	      0.19546824	      0.89710449	      0.66532769	    -11.37480499	     -2.76573007	      0.16077204	     17.32916756	      0.30245103	     -3.54788141	      0.00000000	     -0.00000000	     44.43258832	     -1.26385829	     -9.02520937	     16.86458355	      0.29434251	     -1.76094299	      0.00000000	     -0.00000000	      3.80839252	     -5.95238228	     11.93361892	      0.00000000	      0.00000000	     -0.00000000	      0.00000000	      0.00000000	      0.00000000	     -0.00000000	     -0.00000000	      0.00000000	     -0.00000000	      0.00000000	      0.00000000	     -0.00000000	     -0.00000000
      0.68000000	     -4.75161612	    -12.42552899	     81.15540355	      0.19443304	      0.89705367	      0.64190871	    -10.32420077	     -3.81615700	     -0.49491793	     21.30419680	      0.37182838	     -7.09163172	      0.00000000	      0.00000000	     44.64640346	     -0.52412139	     -8.94376822	     19.72581726	      0.34428046	     -3.98643878	      0.00000000	      0.00000000	      3.82920170	     -6.73629203	     11.64486556	      0.00000000	      0.00000000	      0.00000000	      0.00000000	      0.00000000	      0.00000000	      0.00000000	      0.00000000	      0.00000000	      0.00000000	      0.00000000	      0.00000000	      0.00000000	      0.00000000
      0.69000000	     -5.37352249	    -12.04362572	     81.47339383	      0.19316592	      0.89800522	      0.61858911	     -9.15269980	     -4.86624099	     -1.08866035	     25.63383840	      0.44739488	    -10.93608360	      0.00000000	      0.00000000	     44.50465786	      0.37428042	     -8.74682373	     22.44285951	      0.39170179	     -5.43428656	      0.00000000	      0.00000000	      3.59820602	     -7.54307323	     11.23639680	      0.00000000	      0.00000000	      0.00000000	      0.00000000	      0.00000000	      0.00000000	      0.00000000	      0.00000000	      0.00000000	      0.00000000	      0.00000000	      0.00000000	      0.00000000	      0.00000000
      0.70000000	     -6.03277327	    -11.74994781	     81.81767854	      0.19171480	      0.89959403	      0.59565027	     -7.48421034	     -5.92077564	     -1.45176103	     30.38295090	      0.53028253	    -14.92468131	      0.00000000	      0.00000000	     44.18747856	      1.41961407	     -8.36317578	     24.74622331	      0.43190307	     -6.03317081	      0.00000000	      0.00000000	      3.44048759	     -8.34287322	     10.74793137	      0.00000000	      0.00000000	      0.00000000	      0.00000000	      0.00000000	      0.00000000	      0.00000000	      0.00000000	      0.00000000	      0.00000000	      0.00000000	      0.00000000	      0.00000000	      0.00000000
      0.71000000	     -6.64753374	    -11.36164018	     82.22186432	      0.19015525	      0.90198902	      0.57306495	     -5.63607375	     -6.89514077	     -1.63193789	     35.31683176	      0.61639500	    -18.56419072	      0.00000000	      0.00000000	     43.49581172	      2.52872800	     -7.99529615	     26.64908873	      0.46511434	     -5.83696585	      0.00000000	      0.00000000	      3.11433168	     -9.07944700	     10.17774447	      0.00000000	      0.00000000	      0.00000000	      0.00000000	      0.00000000	      0.00000000	      0.00000000	      0.00000000	      0.00000000	      0.00000000	      0.00000000	      0.00000000	      0.00000000	      0.00000000
      0.72000000	     -7.23082329	    -11.00452344	     82.63034873	      0.18850380	      0.90504705	      0.55098743	     -3.49912627	     -7.78936652	     -1.65221538	     40.27612895	      0.70295106	    -21.56037802	      0.00000000	      0.00000000	     42.52308519	      3.66929977	     -7.65821977	     28.03190391	      0.48924902	     -5.03342216	     -0.00000000	      0.00000000	      2.77338305	     -9.72992104	      9.56003465	     -0.00000000	      0.00000000	     -0.00000000	      0.00000000	      0.00000000	      0.00000000	      0.00000000	      0.00000000	     -0.00000000	      0.00000000	      0.00000000	      0.00000000	     -0.00000000	     -0.00000000
      0.73000000	     -7.72222810	    -10.83950606	     82.95884127	      0.18692188	      0.90846123	      0.52951487	     -0.90409015	     -8.48555158	     -1.40585865	     45.20310073	      0.78894294	    -23.38608069	      0.00000000	      0.00000000	     41.43572624	      4.71763408	     -7.28536450	     28.87017700	      0.50387964	     -3.90449742	      0.00000000	      0.00000000	      2.61649302	    -10.20724560	      9.08722900	      0.00000000	      0.00000000	      0.00000000	      0.00000000	      0.00000000	      0.00000000	      0.00000000	      0.00000000	      0.00000000	      0.00000000	      0.00000000	      0.00000000	      0.00000000	      0.00000000
      0.74000000	     -8.13452395	    -10.50662451	     83.32407542	      0.18529245	      0.91273483	      0.50827436	      1.55027106	     -9.08806076	     -1.22190470	     49.68664310	      0.86719552	    -24.27241144	      0.00000000	      0.00000000	     39.83693331	      5.78073320	     -6.88224660	     29.14792785	      0.50872731	     -2.53582578	      0.00000000	      0.00000000	      2.21704504	    -10.58277423	      8.42276470	      0.00000000	      0.00000000	      0.00000000	      0.00000000	      0.00000000	      0.00000000	      0.00000000	      0.00000000	      0.00000000	      0.00000000	      0.00000000	      0.00000000	      0.00000000	      0.00000000
      0.75000000	     -8.41260877	    -10.34104711	     83.55786785	      0.18382965	      0.91726688	      0.48754876	      4.32321587	     -9.47295520	     -0.90301116	     53.81694419	      0.93928287	    -23.73434755	      0.00000000	      0.00000000	     38.15770076	      6.65148948	     -6.44292479	     28.96802518	      0.50558742	     -1.24909098	      0.00000000	      0.00000000	      2.00174569	    -10.74143260	      7.99356777	      0.00000000	      0.00000000	      0.00000000	      0.00000000	      0.00000000	      0.00000000	      0.00000000	      0.00000000	      0.00000000	      0.00000000	      0.00000000	      0.00000000	      0.00000000	      0.00000000
